<?xml version="1.0" encoding="UTF-8"?>
<svg width="62px" height="62px" viewBox="0 0 62 62" version="1.1" xmlns="http://www.w3.org/2000/svg"
     xmlns:xlink="http://www.w3.org/1999/xlink">
    <!-- Generator: Sketch 61.2 (89653) - https://sketch.com -->
    <title>binary-code</title>
    <desc>Created with Sketch.</desc>
    <g id="Page-1" stroke="none" stroke-width="1" fill="none" fill-rule="evenodd">
        <g id="Icon-Set" transform="translate(-613.000000, -534.000000)" fill="#17a2b8" fill-rule="nonzero">
            <g id="binary-code" transform="translate(613.000000, 534.000000)">
                <path d="M55,0.333333333 L7,0.333333333 C3.32533333,0.333333333 0.333333333,3.32533333 0.333333333,7 L0.333333333,44.3333333 C0.333333333,48.008 3.32533333,51 7,51 L27,51 L27,53.6666667 L17.6666667,53.6666667 C13.992,53.6666667 11,56.6586667 11,60.3333333 C11,61.0693333 11.5973333,61.6666667 12.3333333,61.6666667 L49.6666667,61.6666667 C50.4026667,61.6666667 51,61.0693333 51,60.3333333 C51,56.6586667 48.008,53.6666667 44.3333333,53.6666667 L35,53.6666667 L35,51 L55,51 C58.6746667,51 61.6666667,48.008 61.6666667,44.3333333 L61.6666667,7 C61.6666667,3.32533333 58.6746667,0.333333333 55,0.333333333 Z M7,3 L55,3 C57.2053333,3 59,4.79466667 59,7 L59,40.3333333 L3,40.3333333 L3,7 C3,4.79466667 4.79466667,3 7,3 Z M48.104,59 L13.8933333,59 C14.4453333,57.448 15.928,56.3333333 17.664,56.3333333 L44.3306667,56.3333333 C46.0693333,56.3333333 47.552,57.448 48.104,59 Z M32.3333333,53.6666667 L29.6666667,53.6666667 L29.6666667,51 L32.3333333,51 L32.3333333,53.6666667 Z M55,48.3333333 L7,48.3333333 C4.79466667,48.3333333 3,46.5386667 3,44.3333333 L3,43 L59,43 L59,44.3333333 C59,46.5386667 57.2053333,48.3333333 55,48.3333333 Z"
                      id="Shape"></path>
                <path d="M31.944,13.2746667 L32.3333333,12.8853333 L32.3333333,17.6666667 C32.3333333,18.4026667 32.9306667,19 33.6666667,19 C34.4026667,19 35,18.4026667 35.0026667,17.6666667 L35.0026667,9.66666667 C35.0026667,9.128 34.6773333,8.64 34.1786667,8.43466667 C33.68,8.224 33.1066667,8.34133333 32.7253333,8.72266667 L30.0586667,11.3893333 C29.5386667,11.9093333 29.5386667,12.7546667 30.0586667,13.2746667 C30.5786667,13.7946667 31.424,13.7946667 31.944,13.2746667 Z"
                      id="Shape"></path>
                <path d="M39.944,13.2746667 L40.3333333,12.8853333 L40.3333333,17.6666667 C40.3333333,18.4026667 40.9306667,19 41.6666667,19 C42.4026667,19 43,18.4026667 43,17.6666667 L43,9.66666667 C43,9.128 42.6746667,8.64 42.1786667,8.43466667 C41.6773333,8.224 41.1066667,8.34133333 40.7253333,8.72266667 L38.0586667,11.3893333 C37.5386667,11.9093333 37.5386667,12.7546667 38.0586667,13.2746667 C38.5786667,13.7946667 39.424,13.7946667 39.944,13.2746667 Z"
                      id="Shape"></path>
                <path d="M20.3333333,19 L25.6666667,19 C26.4026667,19 27,18.4026667 27,17.6666667 L27,9.66666667 C27,8.93066667 26.4026667,8.33333333 25.6666667,8.33333333 L20.3333333,8.33333333 C19.5973333,8.33333333 19,8.93066667 19,9.66666667 L19,17.6666667 C19,18.4026667 19.5973333,19 20.3333333,19 Z M21.6666667,11 L24.3333333,11 L24.3333333,16.3333333 L21.6666667,16.3333333 L21.6666667,11 Z"
                      id="Shape"></path>
                <path d="M9.66666667,19 L15,19 C15.736,19 16.3333333,18.4026667 16.3333333,17.6666667 L16.3333333,9.66666667 C16.3333333,8.93066667 15.736,8.33333333 15,8.33333333 L9.66666667,8.33333333 C8.93066667,8.33333333 8.33333333,8.93066667 8.33333333,9.66666667 L8.33333333,17.6666667 C8.33333333,18.4026667 8.93066667,19 9.66666667,19 Z M11,11 L13.6666667,11 L13.6666667,16.3333333 L11,16.3333333 L11,11 Z"
                      id="Shape"></path>
                <path d="M47,19 L52.3333333,19 C53.0693333,19 53.6666667,18.4026667 53.6666667,17.6666667 L53.6666667,9.66666667 C53.6666667,8.93066667 53.0693333,8.33333333 52.3333333,8.33333333 L47,8.33333333 C46.264,8.33333333 45.6666667,8.93066667 45.6666667,9.66666667 L45.6666667,17.6666667 C45.6666667,18.4026667 46.264,19 47,19 Z M48.3333333,11 L51,11 L51,16.3333333 L48.3333333,16.3333333 L48.3333333,11 Z"
                      id="Shape"></path>
                <path d="M23.512,24.4346667 C23.0133333,24.2266667 22.4426667,24.3413333 22.0586667,24.7226667 L19.392,27.3893333 C18.872,27.9093333 18.872,28.7546667 19.392,29.2746667 C19.912,29.7946667 20.7573333,29.7946667 21.2773333,29.2746667 L21.6666667,28.8853333 L21.6666667,33.6666667 C21.6666667,34.4026667 22.264,35 23,35 C23.736,35 24.3333333,34.4026667 24.336,33.6666667 L24.336,25.6666667 C24.336,25.128 24.0106667,24.64 23.512,24.4346667 Z"
                      id="Shape"></path>
                <path d="M39.944,29.2746667 L40.3333333,28.8853333 L40.3333333,33.6666667 C40.3333333,34.4026667 40.9306667,35 41.6666667,35 C42.4026667,35 43,34.4026667 43,33.6666667 L43,25.6666667 C43,25.128 42.6746667,24.64 42.1786667,24.4346667 C41.6773333,24.2266667 41.1066667,24.3413333 40.7253333,24.7226667 L38.0586667,27.3893333 C37.5386667,27.9093333 37.5386667,28.7546667 38.0586667,29.2746667 C38.5786667,29.7946667 39.424,29.7946667 39.944,29.2746667 Z"
                      id="Shape"></path>
                <path d="M27,33.6666667 C27,34.4026667 27.5973333,35 28.3333333,35 L33.6666667,35 C34.4026667,35 35,34.4026667 35,33.6666667 L35,25.6666667 C35,24.9306667 34.4026667,24.3333333 33.6666667,24.3333333 L28.3333333,24.3333333 C27.5973333,24.3333333 27,24.9306667 27,25.6666667 L27,33.6666667 Z M29.6666667,27 L32.3333333,27 L32.3333333,32.3333333 L29.6666667,32.3333333 L29.6666667,27 Z"
                      id="Shape"></path>
                <path d="M9.66666667,35 L15,35 C15.736,35 16.3333333,34.4026667 16.3333333,33.6666667 L16.3333333,25.6666667 C16.3333333,24.9306667 15.736,24.3333333 15,24.3333333 L9.66666667,24.3333333 C8.93066667,24.3333333 8.33333333,24.9306667 8.33333333,25.6666667 L8.33333333,33.6666667 C8.33333333,34.4026667 8.93066667,35 9.66666667,35 Z M11,27 L13.6666667,27 L13.6666667,32.3333333 L11,32.3333333 L11,27 Z"
                      id="Shape"></path>
                <path d="M47,35 L52.3333333,35 C53.0693333,35 53.6666667,34.4026667 53.6666667,33.6666667 L53.6666667,25.6666667 C53.6666667,24.9306667 53.0693333,24.3333333 52.3333333,24.3333333 L47,24.3333333 C46.264,24.3333333 45.6666667,24.9306667 45.6666667,25.6666667 L45.6666667,33.6666667 C45.6666667,34.4026667 46.264,35 47,35 Z M48.3333333,27 L51,27 L51,32.3333333 L48.3333333,32.3333333 L48.3333333,27 Z"
                      id="Shape"></path>
            </g>
        </g>
    </g>
</svg>
